<mxfile host="app.diagrams.net" agent="Mozilla/5.0 (Windows NT 10.0; Win64; x64) AppleWebKit/537.36 (KHTML, like Gecko) Chrome/131.0.0.0 Safari/537.36" version="25.0.3">
  <diagram name="หน้า-1" id="sQD8DpWadYWT9Ywh6LLy">
    <mxGraphModel dx="1861" dy="446" grid="1" gridSize="10" guides="1" tooltips="1" connect="1" arrows="1" fold="1" page="1" pageScale="1" pageWidth="827" pageHeight="1169" math="0" shadow="0">
      <root>
        <mxCell id="0" />
        <mxCell id="1" parent="0" />
        <mxCell id="1j3WVb6n0ErWJEKNvj4H-3" value="" style="edgeStyle=orthogonalEdgeStyle;rounded=0;orthogonalLoop=1;jettySize=auto;html=1;" edge="1" parent="1" source="1j3WVb6n0ErWJEKNvj4H-1">
          <mxGeometry relative="1" as="geometry">
            <mxPoint x="410" y="240" as="targetPoint" />
          </mxGeometry>
        </mxCell>
        <mxCell id="1j3WVb6n0ErWJEKNvj4H-1" value="start" style="strokeWidth=2;html=1;shape=mxgraph.flowchart.start_1;whiteSpace=wrap;" vertex="1" parent="1">
          <mxGeometry x="360" y="100" width="100" height="60" as="geometry" />
        </mxCell>
        <mxCell id="1j3WVb6n0ErWJEKNvj4H-5" value="" style="edgeStyle=orthogonalEdgeStyle;rounded=0;orthogonalLoop=1;jettySize=auto;html=1;" edge="1" parent="1">
          <mxGeometry relative="1" as="geometry">
            <mxPoint x="410" y="300" as="sourcePoint" />
            <mxPoint x="410" y="380" as="targetPoint" />
          </mxGeometry>
        </mxCell>
        <mxCell id="1j3WVb6n0ErWJEKNvj4H-7" value="" style="edgeStyle=orthogonalEdgeStyle;rounded=0;orthogonalLoop=1;jettySize=auto;html=1;" edge="1" parent="1">
          <mxGeometry relative="1" as="geometry">
            <mxPoint x="410" y="440" as="sourcePoint" />
            <mxPoint x="410" y="520" as="targetPoint" />
          </mxGeometry>
        </mxCell>
        <mxCell id="1j3WVb6n0ErWJEKNvj4H-9" value="" style="edgeStyle=orthogonalEdgeStyle;rounded=0;orthogonalLoop=1;jettySize=auto;html=1;" edge="1" parent="1">
          <mxGeometry relative="1" as="geometry">
            <mxPoint x="410" y="580" as="sourcePoint" />
            <mxPoint x="410" y="660" as="targetPoint" />
          </mxGeometry>
        </mxCell>
        <mxCell id="1j3WVb6n0ErWJEKNvj4H-11" value="" style="edgeStyle=orthogonalEdgeStyle;rounded=0;orthogonalLoop=1;jettySize=auto;html=1;" edge="1" parent="1" target="1j3WVb6n0ErWJEKNvj4H-10">
          <mxGeometry relative="1" as="geometry">
            <mxPoint x="410" y="720" as="sourcePoint" />
          </mxGeometry>
        </mxCell>
        <mxCell id="1j3WVb6n0ErWJEKNvj4H-15" value="" style="edgeStyle=orthogonalEdgeStyle;rounded=0;orthogonalLoop=1;jettySize=auto;html=1;" edge="1" parent="1" source="1j3WVb6n0ErWJEKNvj4H-10" target="1j3WVb6n0ErWJEKNvj4H-14">
          <mxGeometry relative="1" as="geometry" />
        </mxCell>
        <mxCell id="1j3WVb6n0ErWJEKNvj4H-10" value="int n ;" style="whiteSpace=wrap;html=1;strokeWidth=2;" vertex="1" parent="1">
          <mxGeometry x="350" y="800" width="120" height="60" as="geometry" />
        </mxCell>
        <mxCell id="1j3WVb6n0ErWJEKNvj4H-17" value="" style="edgeStyle=orthogonalEdgeStyle;rounded=0;orthogonalLoop=1;jettySize=auto;html=1;" edge="1" parent="1" source="1j3WVb6n0ErWJEKNvj4H-14" target="1j3WVb6n0ErWJEKNvj4H-16">
          <mxGeometry relative="1" as="geometry" />
        </mxCell>
        <mxCell id="1j3WVb6n0ErWJEKNvj4H-14" value="&lt;p class=&quot;MsoNormal&quot;&gt;&lt;span style=&quot;background-color: initial;&quot;&gt;printf(&lt;/span&gt;&lt;span style=&quot;background-color: initial;&quot;&gt;&quot;Input N : \n&quot;) ;&lt;/span&gt;&lt;/p&gt;&lt;div&gt;&lt;br&gt;&lt;/div&gt;" style="shape=parallelogram;perimeter=parallelogramPerimeter;whiteSpace=wrap;html=1;fixedSize=1;strokeWidth=2;" vertex="1" parent="1">
          <mxGeometry x="325" y="910" width="170" height="60" as="geometry" />
        </mxCell>
        <mxCell id="1j3WVb6n0ErWJEKNvj4H-19" value="" style="edgeStyle=orthogonalEdgeStyle;rounded=0;orthogonalLoop=1;jettySize=auto;html=1;" edge="1" parent="1" source="1j3WVb6n0ErWJEKNvj4H-16" target="1j3WVb6n0ErWJEKNvj4H-18">
          <mxGeometry relative="1" as="geometry" />
        </mxCell>
        <mxCell id="1j3WVb6n0ErWJEKNvj4H-16" value="รับค่าจากผู้ใช้" style="shape=parallelogram;perimeter=parallelogramPerimeter;whiteSpace=wrap;html=1;fixedSize=1;strokeWidth=2;" vertex="1" parent="1">
          <mxGeometry x="350" y="1050" width="120" height="60" as="geometry" />
        </mxCell>
        <mxCell id="1j3WVb6n0ErWJEKNvj4H-21" value="" style="edgeStyle=orthogonalEdgeStyle;rounded=0;orthogonalLoop=1;jettySize=auto;html=1;" edge="1" parent="1" source="1j3WVb6n0ErWJEKNvj4H-18">
          <mxGeometry relative="1" as="geometry">
            <mxPoint x="410" y="1330" as="targetPoint" />
          </mxGeometry>
        </mxCell>
        <mxCell id="1j3WVb6n0ErWJEKNvj4H-18" value="int Num[ n ] ;" style="whiteSpace=wrap;html=1;strokeWidth=2;" vertex="1" parent="1">
          <mxGeometry x="350" y="1190" width="120" height="60" as="geometry" />
        </mxCell>
        <mxCell id="1j3WVb6n0ErWJEKNvj4H-23" value="" style="edgeStyle=orthogonalEdgeStyle;rounded=0;orthogonalLoop=1;jettySize=auto;html=1;" edge="1" parent="1">
          <mxGeometry relative="1" as="geometry">
            <mxPoint x="410" y="1390" as="sourcePoint" />
            <mxPoint x="410" y="1470" as="targetPoint" />
          </mxGeometry>
        </mxCell>
        <mxCell id="1j3WVb6n0ErWJEKNvj4H-25" value="" style="edgeStyle=orthogonalEdgeStyle;rounded=0;orthogonalLoop=1;jettySize=auto;html=1;" edge="1" parent="1" target="1j3WVb6n0ErWJEKNvj4H-24">
          <mxGeometry relative="1" as="geometry">
            <mxPoint x="410" y="1530" as="sourcePoint" />
          </mxGeometry>
        </mxCell>
        <mxCell id="1j3WVb6n0ErWJEKNvj4H-27" value="" style="edgeStyle=orthogonalEdgeStyle;rounded=0;orthogonalLoop=1;jettySize=auto;html=1;" edge="1" parent="1" source="1j3WVb6n0ErWJEKNvj4H-24" target="1j3WVb6n0ErWJEKNvj4H-26">
          <mxGeometry relative="1" as="geometry" />
        </mxCell>
        <mxCell id="1j3WVb6n0ErWJEKNvj4H-24" value="&lt;p class=&quot;MsoNormal&quot;&gt;int Min =&lt;span style=&quot;mso-spacerun:yes&quot;&gt;&amp;nbsp;&lt;/span&gt;FindMinPosition( Num, n ) ;&lt;/p&gt;&lt;p class=&quot;MsoNormal&quot;&gt;&lt;span style=&quot;background-color: initial;&quot;&gt;&amp;nbsp; &amp;nbsp;&amp;nbsp;&lt;/span&gt;&lt;span style=&quot;background-color: initial;&quot;&gt;int Max =&lt;/span&gt;&lt;span style=&quot;background-color: initial;&quot;&gt;&amp;nbsp; &lt;/span&gt;&lt;span style=&quot;background-color: initial;&quot;&gt;FindMaxPosition( Num, n ) ;&lt;/span&gt;&lt;/p&gt;" style="whiteSpace=wrap;html=1;strokeWidth=2;" vertex="1" parent="1">
          <mxGeometry x="265" y="1630" width="290" height="100" as="geometry" />
        </mxCell>
        <mxCell id="1j3WVb6n0ErWJEKNvj4H-29" style="edgeStyle=orthogonalEdgeStyle;rounded=0;orthogonalLoop=1;jettySize=auto;html=1;exitX=0.5;exitY=1;exitDx=0;exitDy=0;" edge="1" parent="1" source="1j3WVb6n0ErWJEKNvj4H-26" target="1j3WVb6n0ErWJEKNvj4H-28">
          <mxGeometry relative="1" as="geometry" />
        </mxCell>
        <mxCell id="1j3WVb6n0ErWJEKNvj4H-26" value="&lt;p class=&quot;MsoNormal&quot;&gt;&lt;span style=&quot;mso-spacerun:yes&quot;&gt;&amp;nbsp; &amp;nbsp;&amp;nbsp;&lt;/span&gt;printf( &quot;MinValue = %d\n&quot;, Min ) ;&lt;/p&gt;&lt;p class=&quot;MsoNormal&quot;&gt;&lt;span style=&quot;mso-spacerun:yes&quot;&gt;&amp;nbsp;&amp;nbsp;&amp;nbsp; &lt;/span&gt;printf( &quot;MaxValue = %d\n&quot;, Max ) ;&lt;/p&gt;&lt;div&gt;&lt;br/&gt;&lt;/div&gt;" style="shape=parallelogram;perimeter=parallelogramPerimeter;whiteSpace=wrap;html=1;fixedSize=1;strokeWidth=2;" vertex="1" parent="1">
          <mxGeometry x="255" y="1850" width="310" height="90" as="geometry" />
        </mxCell>
        <mxCell id="1j3WVb6n0ErWJEKNvj4H-28" value="end" style="strokeWidth=2;html=1;shape=mxgraph.flowchart.start_1;whiteSpace=wrap;" vertex="1" parent="1">
          <mxGeometry x="360" y="2190" width="100" height="60" as="geometry" />
        </mxCell>
        <mxCell id="1j3WVb6n0ErWJEKNvj4H-30" value="void RandomArr( int [], int ) ;" style="rounded=0;whiteSpace=wrap;html=1;" vertex="1" parent="1">
          <mxGeometry x="320" y="240" width="180" height="60" as="geometry" />
        </mxCell>
        <mxCell id="1j3WVb6n0ErWJEKNvj4H-31" value="void ShowArr( int [], int ) ;" style="rounded=0;whiteSpace=wrap;html=1;" vertex="1" parent="1">
          <mxGeometry x="320" y="380" width="180" height="60" as="geometry" />
        </mxCell>
        <mxCell id="1j3WVb6n0ErWJEKNvj4H-32" value="int FindMinPosition( int [], int ) ;" style="rounded=0;whiteSpace=wrap;html=1;" vertex="1" parent="1">
          <mxGeometry x="315" y="520" width="190" height="60" as="geometry" />
        </mxCell>
        <mxCell id="1j3WVb6n0ErWJEKNvj4H-33" value="int FindMaxPosition( int [], int ) ;" style="rounded=0;whiteSpace=wrap;html=1;" vertex="1" parent="1">
          <mxGeometry x="315" y="660" width="180" height="60" as="geometry" />
        </mxCell>
        <mxCell id="1j3WVb6n0ErWJEKNvj4H-34" value="&lt;span style=&quot;font-family: Calibri, sans-serif; font-size: 14.6667px;&quot;&gt;RandomArr(Num, n ) ;&lt;/span&gt;" style="rounded=0;whiteSpace=wrap;html=1;" vertex="1" parent="1">
          <mxGeometry x="330" y="1330" width="160" height="60" as="geometry" />
        </mxCell>
        <mxCell id="1j3WVb6n0ErWJEKNvj4H-35" value="&lt;span style=&quot;font-family: Calibri, sans-serif; font-size: 14.6667px;&quot;&gt;ShowArr(&lt;/span&gt;&lt;span style=&quot;font-family: Calibri, sans-serif; font-size: 14.6667px;&quot;&gt;Num, n ) ;&lt;/span&gt;" style="rounded=0;whiteSpace=wrap;html=1;" vertex="1" parent="1">
          <mxGeometry x="325" y="1470" width="170" height="60" as="geometry" />
        </mxCell>
        <mxCell id="1j3WVb6n0ErWJEKNvj4H-38" value="" style="edgeStyle=orthogonalEdgeStyle;rounded=0;orthogonalLoop=1;jettySize=auto;html=1;" edge="1" parent="1" source="1j3WVb6n0ErWJEKNvj4H-36" target="1j3WVb6n0ErWJEKNvj4H-37">
          <mxGeometry relative="1" as="geometry" />
        </mxCell>
        <mxCell id="1j3WVb6n0ErWJEKNvj4H-36" value="&lt;p class=&quot;MsoNormal&quot;&gt;void RandomArr( int inputArr[ ], int n ) {&lt;/p&gt;" style="shape=process;whiteSpace=wrap;html=1;backgroundOutline=1;" vertex="1" parent="1">
          <mxGeometry x="-110" y="180" width="290" height="60" as="geometry" />
        </mxCell>
        <mxCell id="1j3WVb6n0ErWJEKNvj4H-40" value="" style="edgeStyle=orthogonalEdgeStyle;rounded=0;orthogonalLoop=1;jettySize=auto;html=1;" edge="1" parent="1" source="1j3WVb6n0ErWJEKNvj4H-37" target="1j3WVb6n0ErWJEKNvj4H-39">
          <mxGeometry relative="1" as="geometry" />
        </mxCell>
        <mxCell id="1j3WVb6n0ErWJEKNvj4H-37" value="int i = 0 ;" style="whiteSpace=wrap;html=1;" vertex="1" parent="1">
          <mxGeometry x="-25" y="320" width="120" height="60" as="geometry" />
        </mxCell>
        <mxCell id="1j3WVb6n0ErWJEKNvj4H-42" value="" style="edgeStyle=orthogonalEdgeStyle;rounded=0;orthogonalLoop=1;jettySize=auto;html=1;" edge="1" parent="1" source="1j3WVb6n0ErWJEKNvj4H-39" target="1j3WVb6n0ErWJEKNvj4H-41">
          <mxGeometry relative="1" as="geometry" />
        </mxCell>
        <mxCell id="1j3WVb6n0ErWJEKNvj4H-39" value="&lt;span style=&quot;font-size:11.0pt;mso-bidi-font-size:14.0pt;&lt;br/&gt;line-height:107%;font-family:&amp;quot;Calibri&amp;quot;,sans-serif;mso-ascii-theme-font:minor-latin;&lt;br/&gt;mso-fareast-font-family:Calibri;mso-fareast-theme-font:minor-latin;mso-hansi-theme-font:&lt;br/&gt;minor-latin;mso-bidi-font-family:&amp;quot;Cordia New&amp;quot;;mso-bidi-theme-font:minor-bidi;&lt;br/&gt;mso-ansi-language:EN-US;mso-fareast-language:EN-US;mso-bidi-language:TH&quot;&gt;srand(time( NULL ) ) ;&lt;/span&gt;" style="whiteSpace=wrap;html=1;" vertex="1" parent="1">
          <mxGeometry x="-71.25" y="460" width="212.5" height="60" as="geometry" />
        </mxCell>
        <mxCell id="1j3WVb6n0ErWJEKNvj4H-44" value="" style="edgeStyle=orthogonalEdgeStyle;rounded=0;orthogonalLoop=1;jettySize=auto;html=1;" edge="1" parent="1" source="1j3WVb6n0ErWJEKNvj4H-41" target="1j3WVb6n0ErWJEKNvj4H-43">
          <mxGeometry relative="1" as="geometry" />
        </mxCell>
        <mxCell id="1j3WVb6n0ErWJEKNvj4H-41" value="i = 0&amp;nbsp;" style="whiteSpace=wrap;html=1;" vertex="1" parent="1">
          <mxGeometry x="-25" y="600" width="120" height="60" as="geometry" />
        </mxCell>
        <mxCell id="1j3WVb6n0ErWJEKNvj4H-46" value="" style="edgeStyle=orthogonalEdgeStyle;rounded=0;orthogonalLoop=1;jettySize=auto;html=1;" edge="1" parent="1" source="1j3WVb6n0ErWJEKNvj4H-43" target="1j3WVb6n0ErWJEKNvj4H-45">
          <mxGeometry relative="1" as="geometry" />
        </mxCell>
        <mxCell id="1j3WVb6n0ErWJEKNvj4H-53" value="" style="edgeStyle=orthogonalEdgeStyle;rounded=0;orthogonalLoop=1;jettySize=auto;html=1;" edge="1" parent="1" source="1j3WVb6n0ErWJEKNvj4H-43" target="1j3WVb6n0ErWJEKNvj4H-52">
          <mxGeometry relative="1" as="geometry" />
        </mxCell>
        <mxCell id="1j3WVb6n0ErWJEKNvj4H-43" value="i &amp;lt; n" style="rhombus;whiteSpace=wrap;html=1;" vertex="1" parent="1">
          <mxGeometry x="-5" y="730" width="80" height="80" as="geometry" />
        </mxCell>
        <mxCell id="1j3WVb6n0ErWJEKNvj4H-48" value="" style="edgeStyle=orthogonalEdgeStyle;rounded=0;orthogonalLoop=1;jettySize=auto;html=1;" edge="1" parent="1" source="1j3WVb6n0ErWJEKNvj4H-45" target="1j3WVb6n0ErWJEKNvj4H-47">
          <mxGeometry relative="1" as="geometry" />
        </mxCell>
        <mxCell id="1j3WVb6n0ErWJEKNvj4H-45" value="input Arr[ i ]" style="whiteSpace=wrap;html=1;" vertex="1" parent="1">
          <mxGeometry x="-25" y="900" width="120" height="60" as="geometry" />
        </mxCell>
        <mxCell id="1j3WVb6n0ErWJEKNvj4H-47" value="i++" style="whiteSpace=wrap;html=1;" vertex="1" parent="1">
          <mxGeometry x="-25" y="1040" width="120" height="60" as="geometry" />
        </mxCell>
        <mxCell id="1j3WVb6n0ErWJEKNvj4H-49" value="" style="shape=waypoint;sketch=0;fillStyle=solid;size=6;pointerEvents=1;points=[];fillColor=none;resizable=0;rotatable=0;perimeter=centerPerimeter;snapToPoint=1;" vertex="1" parent="1">
          <mxGeometry x="25" y="680" width="20" height="20" as="geometry" />
        </mxCell>
        <mxCell id="1j3WVb6n0ErWJEKNvj4H-50" style="edgeStyle=orthogonalEdgeStyle;rounded=0;orthogonalLoop=1;jettySize=auto;html=1;exitX=0.5;exitY=1;exitDx=0;exitDy=0;entryX=0;entryY=0.7;entryDx=0;entryDy=0;entryPerimeter=0;" edge="1" parent="1" source="1j3WVb6n0ErWJEKNvj4H-47" target="1j3WVb6n0ErWJEKNvj4H-49">
          <mxGeometry relative="1" as="geometry">
            <Array as="points">
              <mxPoint x="35" y="1150" />
              <mxPoint x="-110" y="1150" />
              <mxPoint x="-110" y="690" />
            </Array>
          </mxGeometry>
        </mxCell>
        <mxCell id="1j3WVb6n0ErWJEKNvj4H-51" value="T" style="text;html=1;align=center;verticalAlign=middle;resizable=0;points=[];autosize=1;strokeColor=none;fillColor=none;" vertex="1" parent="1">
          <mxGeometry x="-5" y="818" width="30" height="30" as="geometry" />
        </mxCell>
        <mxCell id="1j3WVb6n0ErWJEKNvj4H-52" value="rand() % 90 + 10&amp;nbsp;" style="whiteSpace=wrap;html=1;" vertex="1" parent="1">
          <mxGeometry x="135" y="740" width="120" height="60" as="geometry" />
        </mxCell>
        <mxCell id="1j3WVb6n0ErWJEKNvj4H-54" value="F" style="text;html=1;align=center;verticalAlign=middle;resizable=0;points=[];autosize=1;strokeColor=none;fillColor=none;" vertex="1" parent="1">
          <mxGeometry x="65" y="728" width="30" height="30" as="geometry" />
        </mxCell>
        <mxCell id="1j3WVb6n0ErWJEKNvj4H-57" value="" style="edgeStyle=orthogonalEdgeStyle;rounded=0;orthogonalLoop=1;jettySize=auto;html=1;" edge="1" parent="1" source="1j3WVb6n0ErWJEKNvj4H-55" target="1j3WVb6n0ErWJEKNvj4H-56">
          <mxGeometry relative="1" as="geometry" />
        </mxCell>
        <mxCell id="1j3WVb6n0ErWJEKNvj4H-55" value="&lt;p class=&quot;MsoNormal&quot;&gt;void ShowArr( int InputArr[ ], int n ) {&lt;/p&gt;" style="shape=process;whiteSpace=wrap;html=1;backgroundOutline=1;" vertex="1" parent="1">
          <mxGeometry x="780" y="120" width="280" height="60" as="geometry" />
        </mxCell>
        <mxCell id="1j3WVb6n0ErWJEKNvj4H-59" value="" style="edgeStyle=orthogonalEdgeStyle;rounded=0;orthogonalLoop=1;jettySize=auto;html=1;" edge="1" parent="1" source="1j3WVb6n0ErWJEKNvj4H-56">
          <mxGeometry relative="1" as="geometry">
            <mxPoint x="920" y="400" as="targetPoint" />
          </mxGeometry>
        </mxCell>
        <mxCell id="1j3WVb6n0ErWJEKNvj4H-56" value="int i = 0" style="whiteSpace=wrap;html=1;" vertex="1" parent="1">
          <mxGeometry x="860" y="260" width="120" height="60" as="geometry" />
        </mxCell>
        <mxCell id="1j3WVb6n0ErWJEKNvj4H-61" value="" style="edgeStyle=orthogonalEdgeStyle;rounded=0;orthogonalLoop=1;jettySize=auto;html=1;" edge="1" parent="1" target="1j3WVb6n0ErWJEKNvj4H-60">
          <mxGeometry relative="1" as="geometry">
            <mxPoint x="920" y="460" as="sourcePoint" />
          </mxGeometry>
        </mxCell>
        <mxCell id="1j3WVb6n0ErWJEKNvj4H-63" value="" style="edgeStyle=orthogonalEdgeStyle;rounded=0;orthogonalLoop=1;jettySize=auto;html=1;" edge="1" parent="1" source="1j3WVb6n0ErWJEKNvj4H-60" target="1j3WVb6n0ErWJEKNvj4H-62">
          <mxGeometry relative="1" as="geometry" />
        </mxCell>
        <mxCell id="1j3WVb6n0ErWJEKNvj4H-60" value="i = 0&amp;nbsp;" style="whiteSpace=wrap;html=1;" vertex="1" parent="1">
          <mxGeometry x="860" y="540" width="120" height="60" as="geometry" />
        </mxCell>
        <mxCell id="1j3WVb6n0ErWJEKNvj4H-67" value="" style="edgeStyle=orthogonalEdgeStyle;rounded=0;orthogonalLoop=1;jettySize=auto;html=1;" edge="1" parent="1" source="1j3WVb6n0ErWJEKNvj4H-62" target="1j3WVb6n0ErWJEKNvj4H-66">
          <mxGeometry relative="1" as="geometry" />
        </mxCell>
        <mxCell id="1j3WVb6n0ErWJEKNvj4H-75" value="" style="edgeStyle=orthogonalEdgeStyle;rounded=0;orthogonalLoop=1;jettySize=auto;html=1;" edge="1" parent="1" source="1j3WVb6n0ErWJEKNvj4H-62" target="1j3WVb6n0ErWJEKNvj4H-74">
          <mxGeometry relative="1" as="geometry" />
        </mxCell>
        <mxCell id="1j3WVb6n0ErWJEKNvj4H-62" value="i &amp;lt; n ?" style="rhombus;whiteSpace=wrap;html=1;" vertex="1" parent="1">
          <mxGeometry x="880" y="670" width="80" height="80" as="geometry" />
        </mxCell>
        <mxCell id="1j3WVb6n0ErWJEKNvj4H-70" value="" style="edgeStyle=orthogonalEdgeStyle;rounded=0;orthogonalLoop=1;jettySize=auto;html=1;" edge="1" parent="1" source="1j3WVb6n0ErWJEKNvj4H-66" target="1j3WVb6n0ErWJEKNvj4H-69">
          <mxGeometry relative="1" as="geometry" />
        </mxCell>
        <mxCell id="1j3WVb6n0ErWJEKNvj4H-66" value="&lt;span style=&quot;font-size:11.0pt;mso-bidi-font-size:14.0pt;&lt;br/&gt;line-height:107%;font-family:&amp;quot;Calibri&amp;quot;,sans-serif;mso-ascii-theme-font:minor-latin;&lt;br/&gt;mso-fareast-font-family:Calibri;mso-fareast-theme-font:minor-latin;mso-hansi-theme-font:&lt;br/&gt;minor-latin;mso-bidi-font-family:&amp;quot;Cordia New&amp;quot;;mso-bidi-theme-font:minor-bidi;&lt;br/&gt;mso-ansi-language:EN-US;mso-fareast-language:EN-US;mso-bidi-language:TH&quot;&gt;printf(&quot;%3d&quot;, i ) ;&lt;/span&gt;" style="shape=parallelogram;perimeter=parallelogramPerimeter;whiteSpace=wrap;html=1;fixedSize=1;" vertex="1" parent="1">
          <mxGeometry x="820" y="840" width="200" height="60" as="geometry" />
        </mxCell>
        <mxCell id="1j3WVb6n0ErWJEKNvj4H-68" value="printf( &quot;\n----| %6s : &quot;,&quot;i&quot; ) ;" style="shape=parallelogram;perimeter=parallelogramPerimeter;whiteSpace=wrap;html=1;fixedSize=1;" vertex="1" parent="1">
          <mxGeometry x="825" y="400" width="190" height="60" as="geometry" />
        </mxCell>
        <mxCell id="1j3WVb6n0ErWJEKNvj4H-72" style="edgeStyle=orthogonalEdgeStyle;rounded=0;orthogonalLoop=1;jettySize=auto;html=1;exitX=0.5;exitY=1;exitDx=0;exitDy=0;" edge="1" parent="1" source="1j3WVb6n0ErWJEKNvj4H-69" target="1j3WVb6n0ErWJEKNvj4H-71">
          <mxGeometry relative="1" as="geometry">
            <Array as="points">
              <mxPoint x="920" y="1080" />
              <mxPoint x="1100" y="1080" />
              <mxPoint x="1100" y="620" />
            </Array>
          </mxGeometry>
        </mxCell>
        <mxCell id="1j3WVb6n0ErWJEKNvj4H-69" value="i++" style="whiteSpace=wrap;html=1;" vertex="1" parent="1">
          <mxGeometry x="860" y="980" width="120" height="60" as="geometry" />
        </mxCell>
        <mxCell id="1j3WVb6n0ErWJEKNvj4H-71" value="" style="shape=waypoint;sketch=0;fillStyle=solid;size=6;pointerEvents=1;points=[];fillColor=none;resizable=0;rotatable=0;perimeter=centerPerimeter;snapToPoint=1;" vertex="1" parent="1">
          <mxGeometry x="910" y="610" width="20" height="20" as="geometry" />
        </mxCell>
        <mxCell id="1j3WVb6n0ErWJEKNvj4H-73" value="T" style="text;html=1;align=center;verticalAlign=middle;resizable=0;points=[];autosize=1;strokeColor=none;fillColor=none;" vertex="1" parent="1">
          <mxGeometry x="945" y="758" width="30" height="30" as="geometry" />
        </mxCell>
        <mxCell id="1j3WVb6n0ErWJEKNvj4H-78" value="" style="edgeStyle=orthogonalEdgeStyle;rounded=0;orthogonalLoop=1;jettySize=auto;html=1;" edge="1" parent="1" source="1j3WVb6n0ErWJEKNvj4H-74" target="1j3WVb6n0ErWJEKNvj4H-77">
          <mxGeometry relative="1" as="geometry" />
        </mxCell>
        <mxCell id="1j3WVb6n0ErWJEKNvj4H-74" value="printf( &quot;\n----| %6s : &quot;, &quot;Array&quot; )" style="shape=parallelogram;perimeter=parallelogramPerimeter;whiteSpace=wrap;html=1;fixedSize=1;" vertex="1" parent="1">
          <mxGeometry x="580" y="1060" width="200" height="60" as="geometry" />
        </mxCell>
        <mxCell id="1j3WVb6n0ErWJEKNvj4H-76" value="F" style="text;html=1;align=center;verticalAlign=middle;resizable=0;points=[];autosize=1;strokeColor=none;fillColor=none;" vertex="1" parent="1">
          <mxGeometry x="845" y="668" width="30" height="30" as="geometry" />
        </mxCell>
        <mxCell id="1j3WVb6n0ErWJEKNvj4H-80" value="" style="edgeStyle=orthogonalEdgeStyle;rounded=0;orthogonalLoop=1;jettySize=auto;html=1;" edge="1" parent="1" source="1j3WVb6n0ErWJEKNvj4H-77" target="1j3WVb6n0ErWJEKNvj4H-79">
          <mxGeometry relative="1" as="geometry" />
        </mxCell>
        <mxCell id="1j3WVb6n0ErWJEKNvj4H-77" value="i = 0" style="whiteSpace=wrap;html=1;" vertex="1" parent="1">
          <mxGeometry x="620" y="1200" width="120" height="60" as="geometry" />
        </mxCell>
        <mxCell id="1j3WVb6n0ErWJEKNvj4H-84" value="" style="edgeStyle=orthogonalEdgeStyle;rounded=0;orthogonalLoop=1;jettySize=auto;html=1;" edge="1" parent="1" source="1j3WVb6n0ErWJEKNvj4H-79" target="1j3WVb6n0ErWJEKNvj4H-83">
          <mxGeometry relative="1" as="geometry" />
        </mxCell>
        <mxCell id="1j3WVb6n0ErWJEKNvj4H-93" value="" style="edgeStyle=orthogonalEdgeStyle;rounded=0;orthogonalLoop=1;jettySize=auto;html=1;" edge="1" parent="1" source="1j3WVb6n0ErWJEKNvj4H-79" target="1j3WVb6n0ErWJEKNvj4H-92">
          <mxGeometry relative="1" as="geometry" />
        </mxCell>
        <mxCell id="1j3WVb6n0ErWJEKNvj4H-79" value="i &amp;lt; n ?" style="rhombus;whiteSpace=wrap;html=1;" vertex="1" parent="1">
          <mxGeometry x="640" y="1330" width="80" height="80" as="geometry" />
        </mxCell>
        <mxCell id="1j3WVb6n0ErWJEKNvj4H-87" value="" style="edgeStyle=orthogonalEdgeStyle;rounded=0;orthogonalLoop=1;jettySize=auto;html=1;" edge="1" parent="1" source="1j3WVb6n0ErWJEKNvj4H-83" target="1j3WVb6n0ErWJEKNvj4H-86">
          <mxGeometry relative="1" as="geometry" />
        </mxCell>
        <mxCell id="1j3WVb6n0ErWJEKNvj4H-83" value="printf( &quot;%3d&quot;, InputArr[ i ] )" style="shape=parallelogram;perimeter=parallelogramPerimeter;whiteSpace=wrap;html=1;fixedSize=1;" vertex="1" parent="1">
          <mxGeometry x="580" y="1500" width="200" height="60" as="geometry" />
        </mxCell>
        <mxCell id="1j3WVb6n0ErWJEKNvj4H-85" value="T" style="text;html=1;align=center;verticalAlign=middle;resizable=0;points=[];autosize=1;strokeColor=none;fillColor=none;" vertex="1" parent="1">
          <mxGeometry x="640" y="1418" width="30" height="30" as="geometry" />
        </mxCell>
        <mxCell id="1j3WVb6n0ErWJEKNvj4H-88" style="edgeStyle=orthogonalEdgeStyle;rounded=0;orthogonalLoop=1;jettySize=auto;html=1;exitX=0.5;exitY=1;exitDx=0;exitDy=0;entryX=0.2;entryY=0.6;entryDx=0;entryDy=0;entryPerimeter=0;" edge="1" parent="1" source="1j3WVb6n0ErWJEKNvj4H-86" target="1j3WVb6n0ErWJEKNvj4H-89">
          <mxGeometry relative="1" as="geometry">
            <mxPoint x="560" y="1290" as="targetPoint" />
            <Array as="points">
              <mxPoint x="680" y="1720" />
              <mxPoint x="570" y="1720" />
              <mxPoint x="570" y="1280" />
            </Array>
          </mxGeometry>
        </mxCell>
        <mxCell id="1j3WVb6n0ErWJEKNvj4H-86" value="i++" style="whiteSpace=wrap;html=1;" vertex="1" parent="1">
          <mxGeometry x="620" y="1640" width="120" height="60" as="geometry" />
        </mxCell>
        <mxCell id="1j3WVb6n0ErWJEKNvj4H-89" value="" style="shape=waypoint;sketch=0;fillStyle=solid;size=6;pointerEvents=1;points=[];fillColor=none;resizable=0;rotatable=0;perimeter=centerPerimeter;snapToPoint=1;" vertex="1" parent="1">
          <mxGeometry x="670" y="1270" width="20" height="20" as="geometry" />
        </mxCell>
        <mxCell id="1j3WVb6n0ErWJEKNvj4H-98" value="" style="edgeStyle=orthogonalEdgeStyle;rounded=0;orthogonalLoop=1;jettySize=auto;html=1;" edge="1" parent="1" source="1j3WVb6n0ErWJEKNvj4H-92" target="1j3WVb6n0ErWJEKNvj4H-97">
          <mxGeometry relative="1" as="geometry" />
        </mxCell>
        <mxCell id="1j3WVb6n0ErWJEKNvj4H-92" value="int FindMaxPosition( int InputArr[ ], int n )" style="whiteSpace=wrap;html=1;" vertex="1" parent="1">
          <mxGeometry x="780" y="1340" width="240" height="60" as="geometry" />
        </mxCell>
        <mxCell id="1j3WVb6n0ErWJEKNvj4H-94" value="F" style="text;html=1;align=center;verticalAlign=middle;resizable=0;points=[];autosize=1;strokeColor=none;fillColor=none;" vertex="1" parent="1">
          <mxGeometry x="715" y="1318" width="30" height="30" as="geometry" />
        </mxCell>
        <mxCell id="1j3WVb6n0ErWJEKNvj4H-100" value="" style="edgeStyle=orthogonalEdgeStyle;rounded=0;orthogonalLoop=1;jettySize=auto;html=1;" edge="1" parent="1" source="1j3WVb6n0ErWJEKNvj4H-97" target="1j3WVb6n0ErWJEKNvj4H-99">
          <mxGeometry relative="1" as="geometry" />
        </mxCell>
        <mxCell id="1j3WVb6n0ErWJEKNvj4H-97" value="int Max = -100" style="whiteSpace=wrap;html=1;" vertex="1" parent="1">
          <mxGeometry x="840" y="1480" width="120" height="60" as="geometry" />
        </mxCell>
        <mxCell id="1j3WVb6n0ErWJEKNvj4H-102" value="" style="edgeStyle=orthogonalEdgeStyle;rounded=0;orthogonalLoop=1;jettySize=auto;html=1;" edge="1" parent="1" source="1j3WVb6n0ErWJEKNvj4H-114" target="1j3WVb6n0ErWJEKNvj4H-101">
          <mxGeometry relative="1" as="geometry" />
        </mxCell>
        <mxCell id="1j3WVb6n0ErWJEKNvj4H-99" value="int i = 0" style="whiteSpace=wrap;html=1;" vertex="1" parent="1">
          <mxGeometry x="840" y="1620" width="120" height="60" as="geometry" />
        </mxCell>
        <mxCell id="1j3WVb6n0ErWJEKNvj4H-104" value="" style="edgeStyle=orthogonalEdgeStyle;rounded=0;orthogonalLoop=1;jettySize=auto;html=1;" edge="1" parent="1" source="1j3WVb6n0ErWJEKNvj4H-101" target="1j3WVb6n0ErWJEKNvj4H-103">
          <mxGeometry relative="1" as="geometry" />
        </mxCell>
        <mxCell id="1j3WVb6n0ErWJEKNvj4H-106" value="" style="edgeStyle=orthogonalEdgeStyle;rounded=0;orthogonalLoop=1;jettySize=auto;html=1;" edge="1" parent="1" source="1j3WVb6n0ErWJEKNvj4H-101" target="1j3WVb6n0ErWJEKNvj4H-105">
          <mxGeometry relative="1" as="geometry" />
        </mxCell>
        <mxCell id="1j3WVb6n0ErWJEKNvj4H-101" value="i &amp;lt; n ?" style="rhombus;whiteSpace=wrap;html=1;" vertex="1" parent="1">
          <mxGeometry x="860" y="1750" width="80" height="80" as="geometry" />
        </mxCell>
        <mxCell id="1j3WVb6n0ErWJEKNvj4H-103" value="return Max" style="whiteSpace=wrap;html=1;" vertex="1" parent="1">
          <mxGeometry x="1000" y="1760" width="120" height="60" as="geometry" />
        </mxCell>
        <mxCell id="1j3WVb6n0ErWJEKNvj4H-110" value="" style="edgeStyle=orthogonalEdgeStyle;rounded=0;orthogonalLoop=1;jettySize=auto;html=1;" edge="1" parent="1" source="1j3WVb6n0ErWJEKNvj4H-105" target="1j3WVb6n0ErWJEKNvj4H-109">
          <mxGeometry relative="1" as="geometry" />
        </mxCell>
        <mxCell id="1j3WVb6n0ErWJEKNvj4H-113" value="" style="edgeStyle=orthogonalEdgeStyle;rounded=0;orthogonalLoop=1;jettySize=auto;html=1;" edge="1" parent="1" source="1j3WVb6n0ErWJEKNvj4H-105" target="1j3WVb6n0ErWJEKNvj4H-112">
          <mxGeometry relative="1" as="geometry" />
        </mxCell>
        <mxCell id="1j3WVb6n0ErWJEKNvj4H-105" value="( InputArr[ i ] &gt; Max )" style="rhombus;whiteSpace=wrap;html=1;" vertex="1" parent="1">
          <mxGeometry x="815" y="1910" width="170" height="120" as="geometry" />
        </mxCell>
        <mxCell id="1j3WVb6n0ErWJEKNvj4H-107" value="F" style="text;html=1;align=center;verticalAlign=middle;resizable=0;points=[];autosize=1;strokeColor=none;fillColor=none;" vertex="1" parent="1">
          <mxGeometry x="935" y="1748" width="30" height="30" as="geometry" />
        </mxCell>
        <mxCell id="1j3WVb6n0ErWJEKNvj4H-108" value="T" style="text;html=1;align=center;verticalAlign=middle;resizable=0;points=[];autosize=1;strokeColor=none;fillColor=none;" vertex="1" parent="1">
          <mxGeometry x="855" y="1828" width="30" height="30" as="geometry" />
        </mxCell>
        <mxCell id="1j3WVb6n0ErWJEKNvj4H-109" value="&amp;nbsp;Max = InputArr[ i ]&amp;nbsp;" style="whiteSpace=wrap;html=1;" vertex="1" parent="1">
          <mxGeometry x="840" y="2140" width="120" height="60" as="geometry" />
        </mxCell>
        <mxCell id="1j3WVb6n0ErWJEKNvj4H-111" value="T" style="text;html=1;align=center;verticalAlign=middle;resizable=0;points=[];autosize=1;strokeColor=none;fillColor=none;" vertex="1" parent="1">
          <mxGeometry x="865" y="2028" width="30" height="30" as="geometry" />
        </mxCell>
        <mxCell id="1j3WVb6n0ErWJEKNvj4H-112" value="i++" style="whiteSpace=wrap;html=1;" vertex="1" parent="1">
          <mxGeometry x="1120" y="1940" width="120" height="60" as="geometry" />
        </mxCell>
        <mxCell id="1j3WVb6n0ErWJEKNvj4H-115" value="" style="edgeStyle=orthogonalEdgeStyle;rounded=0;orthogonalLoop=1;jettySize=auto;html=1;" edge="1" parent="1" source="1j3WVb6n0ErWJEKNvj4H-99" target="1j3WVb6n0ErWJEKNvj4H-114">
          <mxGeometry relative="1" as="geometry">
            <mxPoint x="900" y="1680" as="sourcePoint" />
            <mxPoint x="900" y="1750" as="targetPoint" />
          </mxGeometry>
        </mxCell>
        <mxCell id="1j3WVb6n0ErWJEKNvj4H-114" value="" style="shape=waypoint;sketch=0;fillStyle=solid;size=6;pointerEvents=1;points=[];fillColor=none;resizable=0;rotatable=0;perimeter=centerPerimeter;snapToPoint=1;" vertex="1" parent="1">
          <mxGeometry x="890" y="1700" width="20" height="20" as="geometry" />
        </mxCell>
        <mxCell id="1j3WVb6n0ErWJEKNvj4H-117" value="F" style="text;html=1;align=center;verticalAlign=middle;resizable=0;points=[];autosize=1;strokeColor=none;fillColor=none;" vertex="1" parent="1">
          <mxGeometry x="795" y="1928" width="30" height="30" as="geometry" />
        </mxCell>
        <mxCell id="1j3WVb6n0ErWJEKNvj4H-119" style="edgeStyle=orthogonalEdgeStyle;rounded=0;orthogonalLoop=1;jettySize=auto;html=1;exitX=0.5;exitY=0;exitDx=0;exitDy=0;entryX=0.65;entryY=0.75;entryDx=0;entryDy=0;entryPerimeter=0;" edge="1" parent="1" source="1j3WVb6n0ErWJEKNvj4H-112" target="1j3WVb6n0ErWJEKNvj4H-114">
          <mxGeometry relative="1" as="geometry">
            <Array as="points">
              <mxPoint x="1180" y="1710" />
            </Array>
          </mxGeometry>
        </mxCell>
        <mxCell id="1j3WVb6n0ErWJEKNvj4H-122" value="" style="edgeStyle=orthogonalEdgeStyle;rounded=0;orthogonalLoop=1;jettySize=auto;html=1;" edge="1" parent="1" source="1j3WVb6n0ErWJEKNvj4H-120" target="1j3WVb6n0ErWJEKNvj4H-121">
          <mxGeometry relative="1" as="geometry" />
        </mxCell>
        <mxCell id="1j3WVb6n0ErWJEKNvj4H-120" value="int FindMinPosition( int InputArr[ ], int n )" style="shape=process;whiteSpace=wrap;html=1;backgroundOutline=1;" vertex="1" parent="1">
          <mxGeometry x="1390" y="1348" width="280" height="60" as="geometry" />
        </mxCell>
        <mxCell id="1j3WVb6n0ErWJEKNvj4H-124" value="" style="edgeStyle=orthogonalEdgeStyle;rounded=0;orthogonalLoop=1;jettySize=auto;html=1;" edge="1" parent="1" source="1j3WVb6n0ErWJEKNvj4H-121" target="1j3WVb6n0ErWJEKNvj4H-123">
          <mxGeometry relative="1" as="geometry" />
        </mxCell>
        <mxCell id="1j3WVb6n0ErWJEKNvj4H-121" value="int min = 100" style="whiteSpace=wrap;html=1;" vertex="1" parent="1">
          <mxGeometry x="1470" y="1488" width="120" height="60" as="geometry" />
        </mxCell>
        <mxCell id="1j3WVb6n0ErWJEKNvj4H-126" value="" style="edgeStyle=orthogonalEdgeStyle;rounded=0;orthogonalLoop=1;jettySize=auto;html=1;" edge="1" parent="1" source="1j3WVb6n0ErWJEKNvj4H-123" target="1j3WVb6n0ErWJEKNvj4H-125">
          <mxGeometry relative="1" as="geometry" />
        </mxCell>
        <mxCell id="1j3WVb6n0ErWJEKNvj4H-123" value="int i = 0" style="whiteSpace=wrap;html=1;" vertex="1" parent="1">
          <mxGeometry x="1470" y="1628" width="120" height="60" as="geometry" />
        </mxCell>
        <mxCell id="1j3WVb6n0ErWJEKNvj4H-128" value="" style="edgeStyle=orthogonalEdgeStyle;rounded=0;orthogonalLoop=1;jettySize=auto;html=1;" edge="1" parent="1" source="1j3WVb6n0ErWJEKNvj4H-125" target="1j3WVb6n0ErWJEKNvj4H-127">
          <mxGeometry relative="1" as="geometry" />
        </mxCell>
        <mxCell id="1j3WVb6n0ErWJEKNvj4H-138" value="" style="edgeStyle=orthogonalEdgeStyle;rounded=0;orthogonalLoop=1;jettySize=auto;html=1;" edge="1" parent="1" source="1j3WVb6n0ErWJEKNvj4H-125" target="1j3WVb6n0ErWJEKNvj4H-137">
          <mxGeometry relative="1" as="geometry" />
        </mxCell>
        <mxCell id="1j3WVb6n0ErWJEKNvj4H-125" value="i &amp;lt; n ?" style="rhombus;whiteSpace=wrap;html=1;" vertex="1" parent="1">
          <mxGeometry x="1490" y="1758" width="80" height="80" as="geometry" />
        </mxCell>
        <mxCell id="1j3WVb6n0ErWJEKNvj4H-131" value="" style="edgeStyle=orthogonalEdgeStyle;rounded=0;orthogonalLoop=1;jettySize=auto;html=1;" edge="1" parent="1" source="1j3WVb6n0ErWJEKNvj4H-127" target="1j3WVb6n0ErWJEKNvj4H-130">
          <mxGeometry relative="1" as="geometry" />
        </mxCell>
        <mxCell id="1j3WVb6n0ErWJEKNvj4H-134" value="" style="edgeStyle=orthogonalEdgeStyle;rounded=0;orthogonalLoop=1;jettySize=auto;html=1;" edge="1" parent="1" source="1j3WVb6n0ErWJEKNvj4H-127" target="1j3WVb6n0ErWJEKNvj4H-133">
          <mxGeometry relative="1" as="geometry" />
        </mxCell>
        <mxCell id="1j3WVb6n0ErWJEKNvj4H-127" value="( InputArr[ i ] &lt; Min )" style="rhombus;whiteSpace=wrap;html=1;" vertex="1" parent="1">
          <mxGeometry x="1445" y="1919" width="170" height="102" as="geometry" />
        </mxCell>
        <mxCell id="1j3WVb6n0ErWJEKNvj4H-129" value="T" style="text;html=1;align=center;verticalAlign=middle;resizable=0;points=[];autosize=1;strokeColor=none;fillColor=none;" vertex="1" parent="1">
          <mxGeometry x="1495" y="1838" width="30" height="30" as="geometry" />
        </mxCell>
        <mxCell id="1j3WVb6n0ErWJEKNvj4H-135" style="edgeStyle=orthogonalEdgeStyle;rounded=0;orthogonalLoop=1;jettySize=auto;html=1;exitX=0.5;exitY=1;exitDx=0;exitDy=0;entryX=0.5;entryY=1;entryDx=0;entryDy=0;" edge="1" parent="1" source="1j3WVb6n0ErWJEKNvj4H-130" target="1j3WVb6n0ErWJEKNvj4H-133">
          <mxGeometry relative="1" as="geometry" />
        </mxCell>
        <mxCell id="1j3WVb6n0ErWJEKNvj4H-130" value="Min = InputArr[ i ]" style="whiteSpace=wrap;html=1;" vertex="1" parent="1">
          <mxGeometry x="1470" y="2122" width="120" height="60" as="geometry" />
        </mxCell>
        <mxCell id="1j3WVb6n0ErWJEKNvj4H-132" value="T" style="text;html=1;align=center;verticalAlign=middle;resizable=0;points=[];autosize=1;strokeColor=none;fillColor=none;" vertex="1" parent="1">
          <mxGeometry x="1495" y="2018" width="30" height="30" as="geometry" />
        </mxCell>
        <mxCell id="1j3WVb6n0ErWJEKNvj4H-133" value="i++" style="whiteSpace=wrap;html=1;" vertex="1" parent="1">
          <mxGeometry x="1720" y="1940" width="120" height="60" as="geometry" />
        </mxCell>
        <mxCell id="1j3WVb6n0ErWJEKNvj4H-136" value="F" style="text;html=1;align=center;verticalAlign=middle;resizable=0;points=[];autosize=1;strokeColor=none;fillColor=none;" vertex="1" parent="1">
          <mxGeometry x="1615" y="1928" width="30" height="30" as="geometry" />
        </mxCell>
        <mxCell id="1j3WVb6n0ErWJEKNvj4H-137" value="return min" style="whiteSpace=wrap;html=1;" vertex="1" parent="1">
          <mxGeometry x="1630" y="1768" width="120" height="60" as="geometry" />
        </mxCell>
      </root>
    </mxGraphModel>
  </diagram>
</mxfile>
